<svg xmlns="http://www.w3.org/2000/svg" xmlns:xlink="http://www.w3.org/1999/xlink" viewBox="0 0 300 128.39"><defs><style>.cls-1{font-size:44.05px;font-family:ArialMT, Arial;}.cls-2{fill:red;}.cls-3{isolation:isolate;}.cls-4{fill:url(#linear-gradient);}.cls-5{fill:url(#linear-gradient-2);}.cls-6{fill:url(#linear-gradient-3);}.cls-7{fill:url(#linear-gradient-4);}.cls-8{fill:url(#linear-gradient-5);}.cls-9{fill:url(#linear-gradient-6);}.cls-10{fill:url(#linear-gradient-7);}.cls-11{fill:url(#linear-gradient-8);}.cls-12{fill:url(#linear-gradient-9);}.cls-13{fill:url(#linear-gradient-10);}.cls-14{fill:url(#linear-gradient-11);}.cls-15{fill:url(#linear-gradient-12);}.cls-16{fill:url(#linear-gradient-13);}.cls-17{fill:url(#linear-gradient-14);}.cls-18{fill:url(#linear-gradient-15);}.cls-19{fill:url(#linear-gradient-16);}.cls-20{fill:url(#linear-gradient-17);}.cls-21{fill:url(#linear-gradient-18);}.cls-22{fill:url(#linear-gradient-19);}.cls-23{fill:url(#linear-gradient-20);}.cls-24{fill:url(#linear-gradient-21);}.cls-25{fill:url(#linear-gradient-22);}.cls-26{fill:url(#linear-gradient-23);}.cls-27{fill:url(#linear-gradient-24);}.cls-28{fill:url(#linear-gradient-25);}.cls-29{fill:url(#linear-gradient-26);}.cls-30{fill:url(#linear-gradient-27);}.cls-31{fill:url(#linear-gradient-28);}.cls-32{fill:url(#linear-gradient-29);}.cls-33{fill:url(#linear-gradient-30);}.cls-34{fill:url(#linear-gradient-31);}.cls-35{fill:url(#linear-gradient-32);}.cls-36{fill:url(#linear-gradient-33);}.cls-37{fill:url(#linear-gradient-34);}.cls-38{fill:url(#linear-gradient-35);}.cls-39{fill:url(#linear-gradient-36);}.cls-40{fill:url(#linear-gradient-37);}.cls-41{fill:url(#linear-gradient-38);}.cls-42{fill:url(#linear-gradient-39);}.cls-43{fill:url(#linear-gradient-40);}.cls-44{fill:url(#linear-gradient-41);}.cls-45{fill:url(#linear-gradient-42);}.cls-46{fill:url(#linear-gradient-43);}.cls-47{fill:url(#linear-gradient-44);}.cls-48{fill:url(#linear-gradient-45);}.cls-49{fill:url(#linear-gradient-46);}.cls-50{fill:url(#linear-gradient-47);}.cls-51{fill:url(#linear-gradient-48);}.cls-52{fill:url(#linear-gradient-49);}.cls-53{fill:url(#linear-gradient-50);}.cls-54{fill:url(#linear-gradient-51);}.cls-55{fill:url(#linear-gradient-52);}.cls-56{fill:url(#linear-gradient-53);}.cls-57{fill:url(#linear-gradient-54);}.cls-58{fill:url(#linear-gradient-55);}.cls-59{fill:url(#linear-gradient-56);}.cls-60{fill:url(#linear-gradient-57);}.cls-61{fill:url(#linear-gradient-58);}.cls-62{fill:url(#linear-gradient-59);}.cls-63{fill:url(#linear-gradient-60);}.cls-64{fill:url(#linear-gradient-61);}.cls-65{fill:url(#linear-gradient-62);}.cls-66{fill:url(#linear-gradient-63);}.cls-67{fill:url(#linear-gradient-64);}.cls-68{fill:url(#linear-gradient-65);}.cls-69{fill:url(#linear-gradient-66);}.cls-70{fill:url(#linear-gradient-67);}.cls-71{fill:url(#linear-gradient-68);}.cls-72{fill:url(#linear-gradient-69);}.cls-73{fill:url(#linear-gradient-70);}.cls-74{fill:url(#linear-gradient-71);}.cls-75{fill:url(#linear-gradient-72);}.cls-76{fill:url(#linear-gradient-73);}.cls-77{fill:url(#linear-gradient-74);}</style><linearGradient id="linear-gradient" x1="57.32" y1="141.95" x2="-39.54" y2="-26.24" gradientUnits="userSpaceOnUse"><stop offset="0" stop-color="red"/><stop offset="0.2" stop-color="#ba0000"/><stop offset="0.42" stop-color="#790000"/><stop offset="0.61" stop-color="#450000"/><stop offset="0.78" stop-color="#1f0000"/><stop offset="0.91" stop-color="#080000"/><stop offset="1"/></linearGradient><linearGradient id="linear-gradient-2" x1="61" y1="139.83" x2="-35.85" y2="-28.36" xlink:href="#linear-gradient"/><linearGradient id="linear-gradient-3" x1="66.4" y1="136.72" x2="-30.46" y2="-31.47" xlink:href="#linear-gradient"/><linearGradient id="linear-gradient-4" x1="45.47" y1="148.77" x2="-51.39" y2="-19.42" xlink:href="#linear-gradient"/><linearGradient id="linear-gradient-5" x1="56.89" y1="142.2" x2="-39.97" y2="-25.99" xlink:href="#linear-gradient"/><linearGradient id="linear-gradient-6" x1="69.61" y1="134.87" x2="-27.25" y2="-33.32" xlink:href="#linear-gradient"/><linearGradient id="linear-gradient-7" x1="48.67" y1="146.93" x2="-48.19" y2="-21.26" xlink:href="#linear-gradient"/><linearGradient id="linear-gradient-8" x1="58.39" y1="141.33" x2="-38.46" y2="-26.86" xlink:href="#linear-gradient"/><linearGradient id="linear-gradient-9" x1="68.32" y1="135.61" x2="-28.54" y2="-32.58" xlink:href="#linear-gradient"/><linearGradient id="linear-gradient-10" x1="65.71" y1="137.11" x2="-31.15" y2="-31.08" xlink:href="#linear-gradient"/><linearGradient id="linear-gradient-11" x1="70.93" y1="134.11" x2="-25.93" y2="-34.08" xlink:href="#linear-gradient"/><linearGradient id="linear-gradient-12" x1="69.14" y1="135.14" x2="-27.72" y2="-33.05" xlink:href="#linear-gradient"/><linearGradient id="linear-gradient-13" x1="62.66" y1="138.87" x2="-34.2" y2="-29.31" xlink:href="#linear-gradient"/><linearGradient id="linear-gradient-14" x1="53.45" y1="144.18" x2="-43.41" y2="-24.01" xlink:href="#linear-gradient"/><linearGradient id="linear-gradient-15" x1="67.12" y1="136.31" x2="-29.74" y2="-31.88" xlink:href="#linear-gradient"/><linearGradient id="linear-gradient-16" x1="72.27" y1="133.34" x2="-24.59" y2="-34.85" xlink:href="#linear-gradient"/><linearGradient id="linear-gradient-17" x1="73.84" y1="132.44" x2="-23.02" y2="-35.75" xlink:href="#linear-gradient"/><linearGradient id="linear-gradient-18" x1="55.74" y1="142.86" x2="-41.12" y2="-25.33" xlink:href="#linear-gradient"/><linearGradient id="linear-gradient-19" x1="73.55" y1="132.6" x2="-23.31" y2="-35.59" xlink:href="#linear-gradient"/><linearGradient id="linear-gradient-20" x1="74.15" y1="132.26" x2="-22.71" y2="-35.93" xlink:href="#linear-gradient"/><linearGradient id="linear-gradient-21" x1="60.31" y1="140.22" x2="-36.55" y2="-27.97" xlink:href="#linear-gradient"/><linearGradient id="linear-gradient-22" x1="70.01" y1="134.64" x2="-26.85" y2="-33.55" xlink:href="#linear-gradient"/><linearGradient id="linear-gradient-23" x1="71.86" y1="133.57" x2="-24.99" y2="-34.62" xlink:href="#linear-gradient"/><linearGradient id="linear-gradient-24" x1="68.35" y1="135.59" x2="-28.51" y2="-32.6" xlink:href="#linear-gradient"/><linearGradient id="linear-gradient-25" x1="73.32" y1="132.73" x2="-23.54" y2="-35.46" xlink:href="#linear-gradient"/><linearGradient id="linear-gradient-26" x1="65.91" y1="137" x2="-30.95" y2="-31.19" xlink:href="#linear-gradient"/><linearGradient id="linear-gradient-27" x1="74.47" y1="132.07" x2="-22.39" y2="-36.12" xlink:href="#linear-gradient"/><linearGradient id="linear-gradient-28" x1="73.57" y1="132.59" x2="-23.29" y2="-35.6" xlink:href="#linear-gradient"/><linearGradient id="linear-gradient-29" x1="67.08" y1="136.33" x2="-29.78" y2="-31.86" xlink:href="#linear-gradient"/><linearGradient id="linear-gradient-30" x1="73.11" y1="132.85" x2="-23.75" y2="-35.34" xlink:href="#linear-gradient"/><linearGradient id="linear-gradient-31" x1="74.36" y1="132.14" x2="-22.5" y2="-36.05" xlink:href="#linear-gradient"/><linearGradient id="linear-gradient-32" x1="74.76" y1="131.91" x2="-22.1" y2="-36.28" xlink:href="#linear-gradient"/><linearGradient id="linear-gradient-33" x1="74.62" y1="131.98" x2="-22.24" y2="-36.21" xlink:href="#linear-gradient"/><linearGradient id="linear-gradient-34" x1="74.12" y1="132.27" x2="-22.74" y2="-35.92" xlink:href="#linear-gradient"/><linearGradient id="linear-gradient-35" x1="74.82" y1="131.87" x2="-22.03" y2="-36.32" xlink:href="#linear-gradient"/><linearGradient id="linear-gradient-36" x1="88.55" y1="123.96" x2="-8.31" y2="-44.23" xlink:href="#linear-gradient"/><linearGradient id="linear-gradient-37" x1="88.92" y1="123.75" x2="-7.94" y2="-44.44" xlink:href="#linear-gradient"/><linearGradient id="linear-gradient-38" x1="97.46" y1="118.83" x2="0.6" y2="-49.36" xlink:href="#linear-gradient"/><linearGradient id="linear-gradient-39" x1="80.96" y1="128.33" x2="-15.9" y2="-39.85" xlink:href="#linear-gradient"/><linearGradient id="linear-gradient-40" x1="84.55" y1="126.26" x2="-12.31" y2="-41.93" xlink:href="#linear-gradient"/><linearGradient id="linear-gradient-41" x1="98.33" y1="118.33" x2="1.47" y2="-49.86" xlink:href="#linear-gradient"/><linearGradient id="linear-gradient-42" x1="81.81" y1="127.84" x2="-15.05" y2="-40.35" xlink:href="#linear-gradient"/><linearGradient id="linear-gradient-43" x1="84.66" y1="126.2" x2="-12.2" y2="-41.99" xlink:href="#linear-gradient"/><linearGradient id="linear-gradient-44" x1="92.81" y1="121.51" x2="-4.05" y2="-46.68" xlink:href="#linear-gradient"/><linearGradient id="linear-gradient-45" x1="78.55" y1="129.72" x2="-18.3" y2="-38.47" xlink:href="#linear-gradient"/><linearGradient id="linear-gradient-46" x1="93.7" y1="121" x2="-3.16" y2="-47.19" xlink:href="#linear-gradient"/><linearGradient id="linear-gradient-47" x1="79.14" y1="129.38" x2="-17.71" y2="-38.81" xlink:href="#linear-gradient"/><linearGradient id="linear-gradient-48" x1="77.73" y1="130.2" x2="-19.13" y2="-37.99" xlink:href="#linear-gradient"/><linearGradient id="linear-gradient-49" x1="86.31" y1="125.25" x2="-10.55" y2="-42.94" xlink:href="#linear-gradient"/><linearGradient id="linear-gradient-50" x1="79.35" y1="129.26" x2="-17.51" y2="-38.93" xlink:href="#linear-gradient"/><linearGradient id="linear-gradient-51" x1="87.35" y1="124.65" x2="-9.51" y2="-43.54" xlink:href="#linear-gradient"/><linearGradient id="linear-gradient-52" x1="76.91" y1="130.66" x2="-19.95" y2="-37.53" xlink:href="#linear-gradient"/><linearGradient id="linear-gradient-53" x1="78.76" y1="129.6" x2="-18.1" y2="-38.59" xlink:href="#linear-gradient"/><linearGradient id="linear-gradient-54" x1="80.32" y1="128.7" x2="-16.54" y2="-39.49" xlink:href="#linear-gradient"/><linearGradient id="linear-gradient-55" x1="77.31" y1="130.44" x2="-19.55" y2="-37.75" xlink:href="#linear-gradient"/><linearGradient id="linear-gradient-56" x1="80.13" y1="128.81" x2="-16.73" y2="-39.38" xlink:href="#linear-gradient"/><linearGradient id="linear-gradient-57" x1="75.62" y1="131.41" x2="-21.24" y2="-36.78" xlink:href="#linear-gradient"/><linearGradient id="linear-gradient-58" x1="75.48" y1="131.49" x2="-21.38" y2="-36.7" xlink:href="#linear-gradient"/><linearGradient id="linear-gradient-59" x1="88.02" y1="124.27" x2="-8.84" y2="-43.92" xlink:href="#linear-gradient"/><linearGradient id="linear-gradient-60" x1="75.72" y1="131.35" x2="-21.13" y2="-36.84" xlink:href="#linear-gradient"/><linearGradient id="linear-gradient-61" x1="89.53" y1="123.4" x2="-7.32" y2="-44.79" xlink:href="#linear-gradient"/><linearGradient id="linear-gradient-62" x1="81.8" y1="127.85" x2="-15.06" y2="-40.34" xlink:href="#linear-gradient"/><linearGradient id="linear-gradient-63" x1="76.08" y1="131.15" x2="-20.78" y2="-37.04" xlink:href="#linear-gradient"/><linearGradient id="linear-gradient-64" x1="75.35" y1="131.57" x2="-21.51" y2="-36.62" xlink:href="#linear-gradient"/><linearGradient id="linear-gradient-65" x1="75.81" y1="131.3" x2="-21.05" y2="-36.89" xlink:href="#linear-gradient"/><linearGradient id="linear-gradient-66" x1="80.86" y1="128.39" x2="-16" y2="-39.8" xlink:href="#linear-gradient"/><linearGradient id="linear-gradient-67" x1="75.72" y1="131.35" x2="-21.14" y2="-36.84" xlink:href="#linear-gradient"/><linearGradient id="linear-gradient-68" x1="76" y1="131.19" x2="-20.86" y2="-37" xlink:href="#linear-gradient"/><linearGradient id="linear-gradient-69" x1="83" y1="127.16" x2="-13.86" y2="-41.03" xlink:href="#linear-gradient"/><linearGradient id="linear-gradient-70" x1="75.47" y1="131.5" x2="-21.39" y2="-36.69" xlink:href="#linear-gradient"/><linearGradient id="linear-gradient-71" x1="75.22" y1="131.64" x2="-21.64" y2="-36.55" xlink:href="#linear-gradient"/><linearGradient id="linear-gradient-72" x1="76.26" y1="131.04" x2="-20.6" y2="-37.15" xlink:href="#linear-gradient"/><linearGradient id="linear-gradient-73" x1="75.25" y1="131.62" x2="-21.61" y2="-36.57" xlink:href="#linear-gradient"/><linearGradient id="linear-gradient-74" x1="75.88" y1="131.26" x2="-20.97" y2="-36.93" xlink:href="#linear-gradient"/></defs><title>Asset 8</title><g id="Layer_2" data-name="Layer 2"><g id="Layer_1-2" data-name="Layer 1"><text class="cls-1" transform="translate(50.23 77.35)">Deep<tspan class="cls-2" x="105.31" y="0">ImageJ</tspan></text><g class="cls-3"><path class="cls-4" d="M31.28,82.18c-2.32.14-5,5.88-1.44,9l.39.32c-1.84.87-2.36,1.44-3.44,3.78-2.7-8.19-7.07-.79-7.12-.71-2,4.18.77,7.23,4,6a4.9,4.9,0,0,0,2.8-3,4.73,4.73,0,0,0,3,4.15c-6.65,3.88-3.33,8.55-.19,9.4,5.07,1.39,8.54-3.16,6.48-6.72a7.59,7.59,0,0,0-3.19-2.68,4.74,4.74,0,0,0,3.13-3.61c3.6,5.19,7.68,2.53,8.09-.11.63-4-3.76-8.14-6.52-6.15A6.53,6.53,0,0,0,35.44,95a5.69,5.69,0,0,0-3.36-3.5c4.61-3.19,1.41-8.91-.48-9.3a1.12,1.12,0,0,0-.32,0"/><path class="cls-5" d="M40.75,101.27c-4.23.72-5.58,5.8-2.19,8.24s8.81.53,7.94-3.85a5.52,5.52,0,0,0-5.75-4.39"/><path class="cls-6" d="M36.81,82c-2.62.57-3.08,6.73.14,8.58,2.27,1.3,4.54-.53,3.66-4.12-.47-2-2.06-4.59-3.8-4.46"/><path class="cls-7" d="M21.71,101.35c-4.25-.3-6.76,4.78-4.64,7.48,2.36,3,7.81,1.36,8.32-2.51a4.43,4.43,0,0,0-3.68-5"/><path class="cls-8" d="M25.83,82.15c-2.62-.09-4.9,6.11-3,8.08,1.72,1.76,4.81-.41,4.86-4.26,0-2-.84-3.74-1.88-3.82"/><path class="cls-9" d="M45.24,90.81c-2.41,1-1.76,6.65,1.61,7.92,2.33.87,3.83-1.26,2.23-4.72-1-2.19-2.7-3.6-3.84-3.2"/><path class="cls-10" d="M31,111.94c-4.95.16-6.9,4.6-4.16,7,3,2.66,9.82,1.34,9.64-2.8-.11-2.52-3-4.24-5.48-4.2"/><path class="cls-11" d="M42.83,111.42c-4.63.73-5.68,4.92-2.84,7,3.25,2.38,9.34.69,8.68-3.29-.39-2.34-3.06-4-5.84-3.71"/><path class="cls-12" d="M49,100.28c-2.7,1-2.81,5.81.55,7.48,2.56,1.28,5.06-.38,4-3.78-.57-1.83-2.41-4.27-4.56-3.7"/><path class="cls-13" d="M31.32,73.1c-1.66.22-2.76,6-.88,7.61,1.18,1,2.91-.36,2.67-3.66-.16-2-1-4-1.79-4"/><path class="cls-14" d="M41.64,81.69c-1.75.79-.65,6.45,2.06,7.48,1.65.62,2.46-1.24,1-4.31-.66-1.41-2-3.42-3.1-3.17"/><path class="cls-15" d="M35,73c-1.53.41-1.39,6,.73,7.37,1.2.74,2.51-.39,1.78-3.42C37,74.89,35.7,72.9,35,73"/><path class="cls-16" d="M27.78,73.13c-1.72,0-3.4,5.8-2.08,7.09,1.07,1,3-1.11,2.95-4.68,0-1.39-.4-2.39-.87-2.41"/><path class="cls-17" d="M21.07,81.87c-1.81-.33-4.52,5.14-3.35,6.73.91,1.21,3.44-.42,4-3.77.26-1.5,0-2.81-.67-3"/><path class="cls-18" d="M52.84,110c-3.08,1.12-3,5.35.14,6.66,2.83,1.19,5.57-1,4.09-4.25-.84-1.85-2.7-2.91-4.23-2.41"/><path class="cls-19" d="M38.16,72.91c-1.15.6.56,5.77,2.11,6.36,1,.37,1.24-1,.11-3.48-.55-1.23-1.59-3-2.22-2.88"/><path class="cls-20" d="M49.58,89.78c-1.15,1.2,1.07,6,2.83,6.14,1.51.1.13-3.51-1.49-5.43-.83-1-1.21-.82-1.34-.71"/><path class="cls-21" d="M45,122c-4.17.63-5.29,3.67-3,5.39,2.79,2.15,8.85.82,8.33-2.58C50,122.88,47.67,121.64,45,122"/><path class="cls-22" d="M54.39,98.74c-1.4,1.38.66,6,2.65,6,1.76,0,.32-4-1.35-5.61-.75-.72-1.16-.51-1.3-.39"/><path class="cls-23" d="M44.92,81.1c-.37.43.13,2.2.81,3.52s1.68,2.28,2.12,2.19c1-.21-1.33-4.85-2.53-5.64-.18-.12-.33-.14-.4-.07"/><path class="cls-24" d="M24.58,73.09c-1.12-.13-3.33,4.8-2.6,5.8s2.47-1.43,2.84-4.14c.15-1.08,0-1.61-.24-1.66"/><path class="cls-25" d="M31.39,64.38c-.68.19-1.27,5.27-.24,6,.71.5,1.34-1.57.76-4.64-.16-.87-.36-1.37-.52-1.35"/><path class="cls-26" d="M33.19,64.41c-.39.16-.23,2.3-.08,3.18.35,2,.9,2.44,1.06,2.52.61.3.93-1,0-3.75-.32-1-.78-2-1-2"/><path class="cls-27" d="M29.62,64.51c-.37.06-1,1.93-1.32,3.19s-.25,2.12.06,2.29c.89.47,1.84-4.12,1.38-5.34,0-.12-.1-.14-.12-.14"/><path class="cls-28" d="M59.3,107.91c-1.35,1.3.17,5.07,2.08,5.17,1.64.08,1-3-.54-4.69-.41-.43-1-.87-1.54-.48"/><path class="cls-29" d="M56.85,120.12c-2.65.93-2.88,4-.39,5.09s5-.7,4.18-3.08a3.08,3.08,0,0,0-3.79-2"/><path class="cls-30" d="M40.47,72.78c-.42.57,1.72,4.68,2.38,4.59s-1.53-4.1-2.22-4.56c-.11-.08-.16,0-.16,0"/><path class="cls-31" d="M34.87,64.59c-.45.35,1.14,4.52,1.76,4.6s-.82-3.56-1.57-4.46c-.12-.15-.17-.14-.19-.14"/><path class="cls-32" d="M27.92,64.78c-.54,0-2.08,3.77-1.71,4.15s1.72-2.65,1.76-4c0-.17,0-.19,0-.2"/><path class="cls-33" d="M64.47,117.55c-.94.79-.27,3.39,1.26,3.58,1.25.16,1.17-1.87.16-3.09-.18-.22-.83-.92-1.42-.49"/><path class="cls-34" d="M31.5,57.75a5.33,5.33,0,0,1-.06,1.5h0s-.08-.11-.07-.88.08-1.6.1-2.41h0c0,.6,0,1.19,0,1.78"/><path class="cls-35" d="M36.26,64.93a7.31,7.31,0,0,0,1.48,2.77,3.63,3.63,0,0,0-.54-1.32,6.35,6.35,0,0,0-.94-1.45h0"/><path class="cls-36" d="M31.48,56.07c.51,3,.51,3,.61,3s.1-.18-.61-3"/><path class="cls-37" d="M31.41,56.2A23.34,23.34,0,0,0,30.8,59h0a26.09,26.09,0,0,0,.58-2.76"/><path class="cls-38" d="M31.85,57a12.3,12.3,0,0,0,.64,1.58,6.7,6.7,0,0,0-.28-.77c-.11-.27-.25-.53-.36-.81"/></g><g class="cls-3"><g class="cls-3"><path class="cls-39" d="M31.21,16.23c-4.53.1-5.17,3.27-3.18,5.2a9.25,9.25,0,0,0,2.16,1.45c-1.84.6-2.31,1.06-2.79,2.7-2.75-4-6.06-3-6.32-1.24-.35,2.32,3.13,6.58,5.47,4.91a3.05,3.05,0,0,0,1.07-2,5,5,0,0,0,2.64,3c-3.72,2.63-.38,6.61.73,6.83,2.07.43,3.92-3.74,2.54-5.71a4.21,4.21,0,0,0-1.29-1.12,4.8,4.8,0,0,0,2.53-2.56c2.56,5.24,6.41-.33,6.88-1.61,1.4-3.83-2.67-3.52-4.1-2.9A6,6,0,0,0,35,25.4a3.45,3.45,0,0,0-2.88-2.51c4.86-2.18,3.57-5.41,1-6.33a6.26,6.26,0,0,0-2-.33"/><path class="cls-40" d="M37.45,30c-3.79.55-4.09,5.39-2.36,6.55s4.75-3.15,4.27-5.31A1.61,1.61,0,0,0,37.45,30"/><path class="cls-41" d="M40.7,16c-4.89.64-5.94,4.34-3.72,6,2.93,2.15,7.51-2,7-4.43-.09-.41-.6-1.74-3.27-1.54"/><path class="cls-42" d="M25.24,30c-2.83-.11-1.65,3.76.1,5.64,2,2.12,3.08.15,3.11-1.5A4,4,0,0,0,25.24,30"/><path class="cls-43" d="M21.86,16c-3.64-.24-3.44,2.54-1.71,4.49,2.81,3.15,6.2,1.9,6.26-.64,0-2.23-2.67-3.7-4.55-3.85"/><path class="cls-44" d="M46.06,22.2c-3.7,1-5.21,5.37-3.49,6.2s5.39-4.1,4.86-5.71c-.24-.7-1.11-.55-1.37-.49"/><path class="cls-45" d="M31.3,37.48c-2.41.17-1.63,4.87-.36,5.84s2.24-2.13,2-4c-.21-1.52-1.16-1.9-1.63-1.88"/><path class="cls-46" d="M35.75,37.38c-2.51.42-2.7,5-1.71,5.79s3-3.28,2.76-4.86c-.11-.63-.5-1-1-.93"/><path class="cls-47" d="M42.86,29.59c-3,.83-4.36,5.4-3,6s4.35-4.33,4-5.64c-.11-.36-.41-.49-.91-.4"/><path class="cls-48" d="M16.94,22.29c-2.05-.35-1.3,1.94-.14,3.59,1.72,2.46,3.64,3.14,4,1.4.38-2.1-2.11-4.65-3.82-5"/><path class="cls-49" d="M31.08,9.75c-3.95.1-5.15,2.5-3.33,4.32,2.67,2.67,7.78.91,7.62-1.81-.09-1.6-2.25-2.53-4.29-2.51"/><path class="cls-50" d="M27,37.43c-1.86,0-.63,3.82.73,5.29s1.45-1.1,1.45-1.2c.12-2.37-1.23-4-2.18-4.09"/><path class="cls-51" d="M20.14,29.71c-1.64-.25-.67,2.3.71,4.16s2.37,2.09,2.52.77c.21-2-1.77-4.65-3.23-4.93"/><path class="cls-52" d="M20.31,9.37c-3.52-.24-3.62,2-2.15,3.58,2.44,2.69,6.57,2.1,6.58-.29,0-1.72-2.33-3.11-4.43-3.29"/><path class="cls-53" d="M13.88,15.17c-2.33-.42-1.73,1.59-.8,3C15,21,17.59,21.52,17.93,19.74s-2.07-4.16-4-4.57"/><path class="cls-54" d="M39.6,37.15c-2,.61-3.25,4.93-2.48,5.32S40.43,38.3,40,37.35a.36.36,0,0,0-.44-.2"/><path class="cls-55" d="M23.41,37.29c-1.23-.16.35,3,1.35,4.28.61.79,1,.94,1.11.4.24-1.31-1.27-4.47-2.46-4.68"/><path class="cls-56" d="M31.37,45.1c-1.26.16-.54,4.28-.06,4.71s.87-2,.79-3.28c-.07-.87-.34-1.4-.73-1.43"/><path class="cls-57" d="M34,45.07c-1.17.25-1.62,4.43-1.12,4.64s1.85-3.45,1.45-4.41c-.1-.23-.26-.24-.33-.23"/><path class="cls-58" d="M28.86,45.11c-1,.06.48,4,1,4.47s.29-1.13.28-1.3c-.15-2.09-.89-3.16-1.26-3.17"/><path class="cls-59" d="M10.88,8.29C8.71,7.88,9,9.43,9.81,10.67c1.66,2.34,4.6,3.19,4.92,1.41.29-1.59-2.12-3.43-3.85-3.79"/><path class="cls-60" d="M12.21,21.41c-.2-.08-.79-.3-.26.91.71,1.62,3,4.67,3.33,3.7s-1.68-4-3.07-4.61"/><path class="cls-61" d="M16.53,29.18c-.14-.06-.57-.21,0,1,.69,1.49,2.61,4.24,2.8,3.47s-1.76-4-2.78-4.43"/><path class="cls-62" d="M18.79,3.06c-3-.22-3.18,1.28-2.21,2.45,1.8,2.16,5.7,2,6,.25.19-1.23-1.49-2.44-3.75-2.7"/><path class="cls-63" d="M8,13.93c-.64-.25-.78,0-.41.87.86,1.94,3.07,4.28,3.45,3.37s-1.59-3.62-3-4.24"/><path class="cls-64" d="M42.15,36.9c-1.15.64-2.83,4.29-2.46,4.31s2.79-4,2.58-4.3c0,0-.1,0-.12,0"/><path class="cls-65" d="M36.17,45.06c-.91.34-2.12,3.95-1.81,4.11s2.17-3.61,1.94-4.05a.12.12,0,0,0-.13-.06"/><path class="cls-66" d="M26.82,45.22c-.58,0,.94,3,1.48,3.64.17.19.21.11.21,0,0-.8-1.17-3.57-1.69-3.64"/><path class="cls-67" d="M21,37.12c-.3-.09,0,.54.26,1.08.56,1.07,1.78,3,1.92,2.66s-1.57-3.5-2.18-3.74"/><path class="cls-68" d="M4,6.74c-.58-.26-.77,0-.51.63.62,1.52,2.73,3.54,3,2.66S5.25,7.3,4,6.74"/><path class="cls-69" d="M8.12,1.79c-1.27-.28-1.84.33-1.25,1.34,1,1.77,3.91,2.68,4.19,1.33.19-.92-1.29-2.27-2.94-2.67"/><path class="cls-70" d="M31.51,54.64c-.05,1.21-.05,1.21-.05,1.33,0-.74-.12-1.48-.12-2.22,0-.49,0-.75.09-.78s.13.62.08,1.67"/><path class="cls-71" d="M32.14,53a2,2,0,0,0-.27.76c-.16.71-.25,1.43-.4,2.13A10.9,10.9,0,0,0,32.14,53"/><path class="cls-72" d="M37.48,45.22a10.26,10.26,0,0,0-1.67,3,12,12,0,0,0,1.69-3h0"/><path class="cls-73" d="M30.77,53.09c-.07.1-.07.1.65,2.73a14.62,14.62,0,0,0-.65-2.73"/><path class="cls-74" d="M25.61,45.47h0A8.86,8.86,0,0,0,27,47.87a7.83,7.83,0,0,0-1.34-2.4"/><path class="cls-75" d="M32.61,53.29a19.06,19.06,0,0,0-1,2.24,22.69,22.69,0,0,0,1-2.23h0"/><path class="cls-76" d="M30.37,53.46a18.5,18.5,0,0,0,.82,1.89,13.77,13.77,0,0,0-.82-1.89"/><path class="cls-77" d="M.42,0C.09-.11-.11.25.07.64c.26.58,1.52,1.61,1.67,1.11S.89.25.42,0"/></g></g></g></g></svg>